<?xml version="1.0" standalone="no"?>
<!DOCTYPE svg PUBLIC "-//W3C//DTD SVG 20010904//EN"
 "http://www.w3.org/TR/2001/REC-SVG-20010904/DTD/svg10.dtd">
<svg version="1.0" xmlns="http://www.w3.org/2000/svg"
 width="1024.000000pt" height="1024.000000pt" viewBox="0 0 1024.000000 1024.000000"
 preserveAspectRatio="xMidYMid meet">

<g transform="translate(0.000000,1024.000000) scale(0.100000,-0.100000)"
fill="#000000" stroke="none">
<path d="M6921 9249 c-52 -4 -112 -12 -135 -18 -23 -5 -79 -15 -126 -21 -125
-16 -130 -18 -123 -36 3 -9 -6 -27 -22 -44 -16 -17 -25 -33 -21 -37 4 -4 16 3
26 17 20 26 26 13 11 -25 -9 -23 20 -49 89 -80 29 -13 39 -23 35 -33 -18 -47
84 -42 274 14 230 67 284 77 348 64 109 -23 178 -107 176 -212 -2 -66 -49
-172 -106 -243 -86 -105 -243 -250 -316 -290 -20 -11 -61 -36 -91 -56 -86 -55
-198 -106 -285 -129 -92 -24 -123 -28 -295 -39 -77 -4 -117 -10 -105 -15 65
-25 210 -127 290 -203 93 -90 191 -221 261 -352 18 -34 30 -48 32 -38 2 9 7
17 12 17 10 0 25 -68 17 -76 -3 -3 4 -26 14 -50 11 -25 18 -53 15 -62 -4 -10
-28 -34 -54 -54 -104 -79 -194 -208 -227 -323 -10 -33 -22 -63 -27 -66 -13 -9
-135 24 -152 41 -27 27 -57 177 -62 304 -4 124 -19 194 -57 275 -40 87 -70
104 -155 91 -60 -10 -157 -63 -191 -104 -26 -31 -33 -17 -26 52 9 95 -11 294
-35 348 -19 42 -33 53 -43 37 -2 -5 -2 -2 0 5 9 38 -76 116 -152 139 -38 12
-297 18 -265 6 30 -11 101 -96 132 -156 67 -135 107 -345 116 -627 4 -107 6
-207 4 -222 l-3 -28 -175 0 c-172 0 -175 0 -164 -20 10 -19 21 -20 170 -20 95
0 161 -4 165 -10 4 -7 -50 -10 -155 -10 l-162 0 6 -52 6 -53 -18 61 c-10 33
-33 84 -50 113 -18 28 -32 54 -32 56 0 8 -72 115 -77 115 -3 0 -2 -12 1 -26 5
-18 2 -30 -9 -38 -9 -6 -21 -20 -28 -32 -38 -64 -53 -84 -64 -84 -6 0 -26 -12
-43 -26 -30 -26 -31 -30 -27 -85 2 -33 1 -59 -3 -59 -4 0 -11 -20 -14 -45 -4
-25 -11 -45 -16 -45 -5 0 -4 15 1 32 5 18 12 66 15 105 l6 73 -43 0 c-51 0
-49 6 6 13 61 7 108 41 152 110 55 85 60 120 27 170 -18 28 -31 38 -44 34 -13
-3 -17 -1 -13 10 3 8 -4 23 -16 34 -11 11 -21 23 -21 28 0 12 -52 33 -59 24
-31 -43 -82 -126 -96 -156 l-18 -38 -25 23 c-26 24 -50 44 -76 66 -9 7 -21 10
-26 7 -6 -3 -10 -1 -10 6 0 8 -7 5 -20 -6 -11 -10 -17 -22 -14 -26 3 -5 0 -9
-6 -9 -21 0 -120 -122 -120 -147 0 -5 5 -1 10 7 9 13 11 13 21 0 8 -12 9 -10
4 8 -5 19 -2 22 19 22 18 0 24 -4 20 -14 -3 -9 6 -19 25 -27 29 -13 47 -36 37
-46 -2 -3 -13 0 -23 5 -10 6 -43 12 -73 13 -54 3 -55 2 -61 -26 -10 -46 -10
-85 0 -85 5 0 12 8 14 18 4 16 5 16 6 0 1 -21 -7 -20 141 -20 l115 0 -105 -14
c-373 -52 -675 -147 -865 -273 -22 -15 -51 -32 -65 -39 -62 -30 -302 -217
-394 -307 -23 -22 -66 -69 -96 -105 -30 -35 -71 -83 -91 -105 -59 -66 -154
-243 -189 -350 -7 -22 -21 -56 -31 -75 -11 -19 -19 -39 -19 -43 0 -9 -12 -29
-121 -212 -77 -128 -112 -211 -105 -246 5 -27 4 -28 -15 -16 -17 10 -22 9 -34
-8 -8 -11 -31 -38 -50 -60 -34 -38 -132 -159 -182 -224 -13 -16 -57 -78 -99
-137 -41 -60 -83 -118 -93 -129 -30 -34 -101 -223 -114 -303 -17 -107 -13
-299 8 -402 9 -46 33 -130 52 -185 36 -99 38 -110 48 -173 3 -18 11 -56 19
-85 8 -29 17 -106 20 -173 10 -214 31 -271 131 -351 97 -77 174 -106 335 -124
185 -21 449 24 556 95 73 48 95 71 88 91 -6 14 -4 17 9 12 9 -3 17 -2 17 3 0
13 -27 13 -35 0 -8 -13 -35 -13 -35 0 0 6 7 10 17 10 34 0 1 14 -40 17 -23 1
-67 9 -97 17 -31 8 -56 11 -58 5 -6 -16 -22 -10 -22 9 0 11 -23 33 -60 56 -33
21 -63 43 -66 47 -8 13 26 -2 65 -28 47 -32 120 -51 216 -58 44 -3 107 -8 141
-11 50 -5 62 -3 67 10 4 9 14 16 24 16 15 0 16 -2 3 -10 -8 -5 -12 -11 -10
-13 3 -2 51 -7 106 -10 l102 -6 33 65 c20 40 65 99 116 154 67 71 83 94 83
119 0 17 4 31 10 31 5 0 9 -18 8 -40 -1 -21 -5 -37 -10 -34 -4 3 -8 0 -8 -5 0
-6 6 -11 13 -11 6 0 3 -6 -8 -12 -52 -29 -155 -161 -176 -225 -6 -21 -15 -40
-19 -43 -14 -11 -52 -134 -68 -228 -17 -95 -17 -102 0 -171 20 -82 38 -124 85
-199 56 -89 179 -203 234 -215 14 -4 38 -18 55 -32 16 -14 53 -32 82 -41 64
-18 88 -8 115 48 l17 33 0 -90 c0 -49 7 -137 16 -195 8 -58 17 -116 19 -130 5
-37 24 -83 42 -102 18 -20 33 -23 33 -8 0 6 -3 9 -7 8 -5 -2 -8 2 -8 7 0 6 16
9 35 7 30 -3 40 3 85 52 52 56 95 80 95 52 0 -8 -10 -16 -22 -18 -13 -2 -22
-9 -20 -16 1 -8 -2 -11 -8 -7 -6 3 -29 -13 -53 -37 -23 -24 -51 -48 -62 -54
-31 -18 -10 -27 31 -14 25 9 40 21 47 41 6 15 22 33 36 40 15 7 43 28 63 47
23 22 42 32 52 29 11 -5 16 0 16 13 0 21 15 27 25 10 10 -17 25 -11 25 9 0 23
-16 37 -22 19 -3 -7 -12 -9 -22 -5 -15 6 -16 10 -5 23 7 8 21 13 31 11 10 -3
18 -1 18 4 0 5 -7 9 -15 9 -16 0 -20 15 -7 24 5 3 8 28 6 56 -1 27 1 50 6 50
10 0 18 -57 26 -177 5 -78 9 -93 23 -93 24 0 41 -19 34 -38 -4 -10 -2 -13 5
-8 7 4 12 2 12 -4 0 -8 9 -10 23 -7 17 5 25 0 33 -18 10 -20 9 -25 -5 -30 -13
-5 -12 -9 9 -20 19 -10 27 -10 32 -2 5 8 8 7 8 -3 0 -13 41 -40 60 -40 12 0
50 37 50 48 0 5 35 47 77 91 74 79 101 124 96 166 -8 80 -7 119 3 122 7 2 14
-14 18 -37 4 -28 11 -40 24 -41 10 0 12 -3 5 -6 -20 -7 -15 -39 12 -91 26 -50
105 -142 105 -123 0 6 7 11 16 11 14 0 14 -3 4 -15 -7 -8 -8 -15 -3 -15 4 0
17 -16 27 -35 11 -19 23 -35 27 -35 4 0 17 -16 29 -36 28 -44 35 -39 15 10 -9
20 -17 55 -20 79 -3 36 0 46 28 74 17 18 33 29 37 24 15 -26 32 -14 35 27 2
23 -1 42 -6 42 -5 0 -9 5 -9 11 0 6 9 9 20 6 11 -3 18 -1 14 4 -3 5 -12 9 -21
9 -9 0 -13 3 -9 7 4 4 15 8 23 8 9 0 18 5 20 11 2 7 -6 10 -22 7 -22 -5 -25
-2 -25 23 0 15 3 24 8 20 4 -4 7 -12 7 -17 0 -20 21 -10 33 15 11 22 11 34 1
59 -22 58 -112 242 -125 257 -7 8 -27 42 -45 75 -17 33 -38 71 -45 85 -8 14
-14 32 -14 41 0 8 -4 19 -9 25 -5 5 -21 59 -36 119 -33 128 -77 233 -102 242
-10 3 -46 19 -81 34 -51 23 -160 61 -182 63 -3 1 -16 11 -29 23 -13 12 -49 28
-80 34 -67 15 -53 11 -126 34 -33 10 -102 41 -153 69 -51 28 -101 55 -111 60
-10 5 -30 28 -45 50 -89 137 -103 149 -187 152 -80 3 -119 26 -153 92 -17 33
-22 137 -7 146 15 9 0 57 -28 89 -13 15 -13 20 -2 27 11 6 6 18 -23 53 -39 48
-48 71 -16 42 17 -16 20 -16 20 -2 0 9 -9 22 -20 30 -12 8 -20 18 -19 23 4 21
-2 35 -11 29 -5 -3 -10 -25 -10 -47 0 -23 -3 -38 -8 -34 -4 4 -7 13 -7 19 0 7
-12 11 -27 10 -24 -1 -25 0 -15 28 8 19 15 25 21 19 15 -15 22 -12 22 9 0 11
-5 17 -10 14 -5 -4 -7 7 -3 25 4 17 2 34 -3 37 -4 3 -11 19 -15 35 -13 59 -25
30 -22 -50 2 -44 0 -80 -4 -80 -13 0 -18 32 -21 143 -3 117 -17 147 -19 40
l-1 -68 -9 45 c-6 25 -7 64 -4 86 6 44 -1 61 -54 132 -29 38 -93 61 -117 41
-18 -15 -18 -90 0 -134 8 -19 13 -35 11 -35 -2 0 5 -19 15 -42 11 -24 20 -52
20 -62 0 -21 40 -86 53 -86 4 0 18 -12 31 -26 12 -15 33 -27 46 -28 15 -1 26
-8 28 -19 4 -18 3 -18 -22 -2 -14 10 -33 15 -41 11 -11 -4 -26 9 -47 39 -18
25 -38 45 -45 45 -7 0 -12 3 -12 8 4 25 -1 34 -15 23 -11 -9 -20 -9 -34 -2
-11 6 -41 15 -68 21 -27 6 -56 18 -66 27 -9 8 -20 13 -25 11 -4 -3 -16 3 -25
14 -23 23 -15 23 36 -1 85 -39 167 -63 179 -52 4 4 -4 34 -17 67 -24 58 -32
93 -40 164 -2 19 -7 42 -11 52 -5 12 1 18 23 23 56 12 48 46 -13 58 -16 3 -38
9 -47 12 -14 6 -18 2 -18 -14 0 -12 -4 -21 -10 -21 -14 0 -12 26 3 38 15 13
79 5 115 -14 15 -8 32 -14 39 -14 6 0 41 -29 78 -65 58 -57 74 -83 134 -208
38 -78 72 -153 76 -167 4 -14 15 -36 24 -49 9 -14 14 -35 13 -49 -4 -28 45
-130 70 -146 20 -12 23 -37 8 -52 -5 -5 -13 -37 -16 -70 -5 -46 -3 -68 10 -92
21 -41 59 -66 89 -58 13 3 27 2 31 -1 4 -4 21 -8 39 -9 53 -3 85 -21 106 -61
19 -38 66 -103 98 -136 46 -47 195 -119 341 -163 63 -19 122 -39 132 -44 11
-6 70 -28 132 -51 135 -48 256 -101 318 -140 25 -15 70 -37 100 -49 30 -12 64
-30 75 -40 23 -20 228 -125 323 -164 142 -59 228 -68 422 -41 61 9 204 19 318
24 181 7 213 11 257 30 27 12 52 26 55 30 3 4 25 19 50 33 25 15 65 45 90 67
25 23 48 41 52 41 3 0 19 12 35 27 94 91 166 139 278 183 44 17 85 35 90 39 6
5 53 23 105 41 52 17 109 38 125 45 17 6 56 22 88 35 31 12 60 26 63 31 3 5
14 9 24 9 10 0 42 16 71 35 30 19 57 35 61 35 16 0 97 62 140 108 43 45 68 99
68 145 0 11 8 17 25 17 13 0 53 15 87 34 58 31 66 39 102 110 l40 76 -22 30
c-26 34 -27 40 -8 40 7 0 20 -10 28 -22 18 -27 53 -18 45 12 -7 29 11 35 23 8
14 -32 30 -55 67 -97 18 -20 33 -39 33 -43 0 -5 6 -8 13 -8 7 0 17 -10 22 -23
6 -12 26 -27 45 -34 19 -7 27 -12 18 -12 -20 -1 -14 -26 7 -35 10 -3 12 0 9
12 -6 19 7 5 58 -60 40 -50 119 -90 176 -90 51 0 129 27 192 67 122 77 317
327 413 530 10 22 23 47 27 55 47 79 165 334 190 408 32 99 53 251 32 238 -7
-4 -12 -3 -12 3 0 5 4 12 9 15 10 6 -12 91 -29 111 -15 19 -4 39 36 60 45 24
38 40 -17 38 -35 -1 -39 0 -19 7 14 4 19 8 13 9 -7 1 -12 4 -12 9 4 21 -3 23
-22 6 -20 -18 -22 -18 -33 -2 -7 10 -16 15 -19 11 -4 -3 -7 2 -7 11 0 14 6 16
28 12 37 -8 50 3 52 44 5 80 -4 85 -87 49 -93 -40 -285 -100 -300 -95 -14 6
-14 9 1 29 58 82 72 168 42 266 -9 30 -16 64 -16 76 0 12 -8 30 -19 39 -17 16
-19 16 -24 -5 -3 -12 -10 -18 -17 -14 -6 4 -8 16 -5 28 3 12 -2 7 -12 -10 -9
-18 -20 -33 -25 -33 -4 0 -8 -4 -8 -9 0 -14 -52 -91 -62 -91 -11 0 -10 7 8 43
16 31 16 31 -2 14 -10 -9 -19 -29 -20 -45 -1 -15 -3 -31 -3 -35 -1 -5 -5 -5
-11 -2 -5 3 -18 -7 -27 -22 -10 -15 -25 -28 -33 -28 -19 0 -39 -41 -33 -66 3
-11 11 -18 19 -15 14 5 -41 -87 -63 -105 -10 -9 -13 -8 -13 4 0 9 4 18 9 21 4
3 11 29 14 58 3 29 12 67 21 83 21 40 21 41 -12 54 -22 9 -35 9 -56 0 -20 -10
-29 -10 -38 -1 -28 28 29 43 102 28 33 -7 34 -7 14 8 -11 8 -34 18 -50 22 -16
4 -48 15 -71 25 l-42 19 24 69 c29 79 31 107 10 127 -16 17 -35 11 -35 -12 0
-8 -4 -14 -10 -14 -5 0 -10 7 -10 15 0 21 -13 19 -35 -5 -10 -11 -25 -20 -34
-20 -16 0 -51 -33 -51 -48 0 -4 -20 -23 -45 -42 -24 -19 -44 -38 -45 -41 0 -4
-19 -38 -42 -75 -85 -141 -121 -234 -144 -374 -6 -41 -17 -88 -22 -105 -15
-42 -49 -155 -56 -188 -5 -22 -10 -26 -20 -18 -9 8 -18 5 -34 -10 -29 -26
-121 -69 -149 -69 -26 0 -34 12 -44 60 l-7 35 -1 -41 c-1 -47 -24 -75 -44 -55
-9 9 -6 31 12 99 13 48 26 99 29 115 9 54 21 25 15 -38 -4 -42 -2 -65 4 -65
22 0 33 126 13 146 -6 6 -16 47 -22 92 -10 67 -15 82 -30 82 -25 0 -34 44 -14
75 20 30 20 49 1 65 -22 18 -18 47 10 84 14 18 25 45 25 59 0 15 4 27 9 27 12
0 31 89 31 143 0 49 -9 87 -20 87 -7 0 -11 -23 -27 -132 -3 -21 -7 -38 -9 -38
-3 0 -24 20 -48 45 -25 25 -51 45 -59 45 -17 0 -43 28 -34 37 4 3 13 0 21 -6
17 -14 32 2 20 21 -4 6 -8 23 -9 37 -3 40 -40 172 -58 207 -9 17 -23 36 -31
43 -9 8 -16 19 -16 26 0 7 -7 18 -15 25 -8 7 -15 25 -15 41 0 19 -9 37 -25 51
-14 12 -30 38 -35 57 -7 26 -18 40 -41 50 -37 16 -151 125 -203 194 -41 56
-103 110 -155 136 -20 10 -59 32 -87 47 -116 65 -267 144 -288 150 -21 6 -56
21 -171 74 -63 29 -215 79 -290 96 -5 1 -59 13 -120 27 -60 15 -155 34 -210
43 -55 9 -111 19 -125 21 -55 11 -289 14 -355 5 -132 -19 -253 -42 -295 -57
-24 -8 -49 -15 -57 -15 -8 0 -39 -11 -69 -25 -30 -14 -59 -25 -64 -25 -6 0
-33 -12 -60 -26 -27 -14 -54 -23 -59 -20 -5 4 -13 0 -18 -7 -8 -14 -237 -167
-250 -167 -6 0 -33 -16 -175 -108 -28 -18 -57 -31 -65 -28 -25 10 -25 36 1 66
14 17 31 50 37 73 15 57 50 178 57 197 3 8 6 18 6 22 1 3 4 10 9 14 14 14 7
-26 -18 -94 -14 -38 -25 -78 -25 -88 0 -24 -23 -88 -50 -139 -24 -47 -12 -57
27 -20 15 14 47 35 70 46 23 11 43 24 45 28 2 4 35 25 73 46 39 22 110 65 158
96 71 46 84 59 68 64 -21 6 -47 33 -39 40 3 3 19 0 37 -6 40 -14 63 2 56 40
-5 25 -5 25 5 3 14 -32 32 -36 76 -17 43 19 148 50 237 70 32 7 65 16 74 19
49 19 236 37 387 36 174 0 282 -9 416 -36 147 -30 441 -124 545 -175 43 -21
89 -39 102 -39 13 0 23 -4 23 -9 0 -4 21 -16 48 -26 26 -10 83 -38 127 -63 43
-25 93 -51 110 -59 39 -18 63 -33 102 -60 27 -20 53 -30 53 -20 0 2 -9 30 -21
63 -17 50 -19 75 -15 164 3 58 2 110 -2 116 -10 14 -122 74 -140 74 -7 0 -26
-9 -40 -20 -15 -12 -52 -40 -82 -63 -112 -85 -141 -100 -154 -79 -6 9 -36 169
-66 342 -10 58 -27 131 -39 162 -26 75 -128 277 -152 302 -15 17 -10 36 8 29
11 -4 14 -3 9 5 -5 9 0 9 20 0 21 -10 24 -14 11 -16 -9 -2 -17 -6 -17 -10 0
-3 31 -70 69 -147 39 -78 78 -175 89 -216 18 -73 19 -74 69 -99 27 -14 83 -47
124 -75 93 -63 263 -149 267 -135 5 14 -16 74 -56 160 -19 41 -46 104 -61 140
-54 129 -185 298 -334 430 -148 130 -231 195 -212 167 23 -36 13 -46 -12 -12
-10 15 -28 38 -41 53 l-22 27 6 -30 6 -30 -17 30 c-24 44 -105 118 -230 210
-19 14 -19 14 7 15 34 0 154 43 176 63 9 8 42 32 72 52 30 20 75 55 100 77 25
21 95 80 157 129 62 49 116 97 122 106 5 10 12 15 16 11 6 -6 -191 -185 -223
-202 -9 -5 -33 -24 -53 -43 -82 -78 -267 -193 -311 -193 -37 0 -25 -20 39 -66
38 -26 80 -61 95 -79 14 -17 46 -44 70 -60 163 -111 381 -312 495 -458 42 -54
192 -337 193 -363 0 -7 9 -31 20 -55 11 -24 20 -57 20 -74 0 -35 55 -99 120
-140 40 -25 150 -133 150 -147 0 -4 18 -27 39 -52 31 -35 43 -61 56 -118 9
-40 17 -85 17 -100 1 -15 5 -25 10 -22 22 14 -39 228 -96 339 -20 38 -36 74
-36 81 0 11 -21 63 -61 151 -10 24 -19 47 -19 53 0 5 -9 29 -19 52 -49 110
-105 321 -141 529 -50 285 6 445 175 504 157 55 428 9 614 -103 25 -15 57 -33
71 -39 14 -6 48 -31 76 -54 27 -24 68 -57 89 -74 21 -16 53 -43 72 -59 18 -15
33 -25 33 -21 0 12 -149 152 -215 203 -33 26 -74 61 -92 79 -18 17 -65 58
-105 89 -40 32 -91 75 -113 95 -22 20 -91 76 -154 124 -63 48 -119 92 -125 96
-6 5 -63 51 -126 101 -165 132 -224 180 -230 187 -3 4 -30 28 -61 54 l-57 48
-22 -36 c-28 -45 -39 -38 -13 7 11 18 28 62 38 98 9 36 19 71 21 78 7 23 21
12 16 -13 -4 -21 0 -25 19 -25 29 -1 84 -29 57 -30 -9 0 -20 5 -23 10 -7 12
-62 14 -68 3 -3 -5 -8 -22 -12 -40 -5 -27 -2 -37 23 -60 45 -43 137 -122 196
-167 29 -23 120 -95 202 -162 82 -66 162 -129 179 -140 16 -10 39 -27 50 -36
11 -9 62 -52 114 -95 51 -43 111 -91 132 -106 22 -15 39 -32 39 -37 0 -4 15
-17 33 -29 17 -11 41 -28 52 -38 11 -10 43 -34 70 -53 28 -19 51 -38 53 -42 2
-4 42 -47 90 -95 84 -86 85 -87 57 -38 -66 114 -150 265 -188 335 -21 41 -62
118 -90 170 -72 138 -135 248 -172 306 -19 27 -42 68 -52 90 -10 21 -20 41
-23 44 -3 3 -34 43 -68 90 -127 171 -130 175 -226 248 -79 60 -160 101 -261
132 -107 33 -173 58 -252 96 -39 19 -74 34 -77 34 -4 0 -38 16 -77 35 -39 19
-81 35 -94 35 -13 0 -25 6 -28 13 -13 34 -116 43 -316 26z m251 -51 c-13 -13
-121 -29 -137 -19 -5 3 19 10 55 17 94 16 96 16 82 2z m-598 -33 c-6 -16 -24
-21 -24 -7 0 11 11 22 21 22 5 0 6 -7 3 -15z m959 -167 c49 -76 57 -93 57
-127 0 -45 -16 -38 -23 9 -6 45 -38 114 -70 148 -11 12 -16 22 -10 22 6 0 27
-24 46 -52z m197 -288 c0 -12 -8 -12 -35 0 -18 8 -17 9 8 9 15 1 27 -3 27 -9z
m50 -10 c0 -5 -4 -10 -9 -10 -6 0 -13 5 -16 10 -3 6 1 10 9 10 9 0 16 -4 16
-10z m103 -7 c-7 -2 -21 -2 -30 0 -10 3 -4 5 12 5 17 0 24 -2 18 -5z m-431
-180 c-17 -21 -45 -51 -63 -68 -17 -16 -5 2 27 42 32 39 61 69 63 67 2 -1 -10
-20 -27 -41z m-92 -107 c0 -3 -4 -8 -10 -11 -5 -3 -10 -1 -10 4 0 6 5 11 10
11 6 0 10 -2 10 -4z m-954 -361 c10 -8 14 -15 8 -15 -5 0 -19 7 -30 15 -10 8
-14 15 -8 15 5 0 19 -7 30 -15z m84 -55 c0 -5 -2 -10 -4 -10 -3 0 -8 5 -11 10
-3 6 -1 10 4 10 6 0 11 -4 11 -10z m684 -524 c19 -8 37 -19 40 -25 5 -8 -1 -8
-21 0 -15 7 -39 13 -53 14 -60 6 -56 4 -40 15 20 13 35 12 74 -4z m-2376 -193
c-47 -104 -61 -123 -74 -102 -4 6 1 16 10 21 9 5 16 20 16 34 0 28 18 53 38
54 8 0 12 -3 10 -7z m-191 -215 c-3 -8 -6 -5 -6 6 -1 11 2 17 5 13 3 -3 4 -12
1 -19z m88 -18 c3 -5 1 -10 -4 -10 -6 0 -11 5 -11 10 0 6 2 10 4 10 3 0 8 -4
11 -10z m-81 -21 c-3 -5 -10 -7 -15 -3 -5 3 -7 10 -3 15 3 5 10 7 15 3 5 -3 7
-10 3 -15z m1059 -26 c-13 -2 -33 -2 -45 0 -13 2 -3 4 22 4 25 0 35 -2 23 -4z
m-276 -165 c-3 -8 -6 -5 -6 6 -1 11 2 17 5 13 3 -3 4 -12 1 -19z m-261 -46
c-4 -3 -14 2 -24 12 -16 18 -16 18 6 6 13 -6 21 -14 18 -18z m291 22 c-3 -3
-12 -4 -19 -1 -8 3 -5 6 6 6 11 1 17 -2 13 -5z m-222 -30 c14 -9 42 -22 63
-30 26 -9 31 -13 15 -14 -27 0 -72 19 -97 42 -25 22 -13 23 19 2z m-654 -79
c16 -31 32 -47 49 -51 51 -11 66 -22 22 -17 l-43 6 7 -29 c3 -16 12 -51 20
-79 18 -67 20 -99 9 -103 -6 -1 -13 21 -16 50 -7 63 -32 144 -65 210 -26 52
-28 58 -15 58 4 0 19 -20 32 -45z m196 -90 c5 -7 27 -23 51 -35 40 -21 44 -21
61 -6 10 9 22 16 27 16 5 0 1 -5 -8 -11 -10 -5 -18 -17 -18 -24 0 -8 -3 -15
-6 -15 -7 0 -174 81 -174 85 0 9 61 1 67 -10z m-138 -307 c-7 -24 -13 -48 -15
-54 -1 -7 -14 -35 -28 -64 -14 -28 -26 -58 -26 -66 0 -9 -4 -12 -10 -9 -5 3
-15 -7 -22 -22 -7 -15 -31 -56 -54 -90 -45 -65 -85 -160 -83 -196 1 -21 1 -21
9 3 4 14 11 36 14 50 3 14 17 39 31 55 l25 30 -24 -55 c-33 -73 -86 -209 -86
-222 0 -5 -13 -39 -30 -75 -16 -35 -30 -67 -30 -71 0 -4 -17 -41 -37 -82 -29
-57 -39 -70 -41 -52 -2 12 3 28 11 36 8 8 20 29 26 48 22 56 58 141 77 181 8
16 14 41 14 57 0 16 5 32 10 35 6 3 10 13 10 21 0 8 -4 14 -10 14 -5 0 -10 -4
-10 -10 0 -5 -14 -31 -31 -57 -29 -45 -33 -25 -4 22 14 23 95 211 95 221 0 10
69 112 79 119 10 6 74 116 102 175 9 19 22 64 30 100 11 53 15 59 17 33 2 -17
-2 -51 -9 -75z m226 24 c-17 -15 -53 -45 -79 -67 -44 -36 -153 -134 -195 -176
-9 -9 -21 -24 -27 -35 -7 -10 -15 -16 -19 -12 -10 9 174 191 265 261 79 60
106 75 55 29z m-344 -340 c-5 -10 -18 -25 -27 -33 -16 -12 -16 -10 1 19 20 33
43 46 26 14z m-421 -122 c28 -15 125 -168 141 -222 7 -26 17 -44 21 -42 12 8
10 -1 -9 -41 -18 -39 -25 -42 -42 -21 -10 11 -9 16 5 24 15 8 15 15 4 61 -12
51 -79 151 -100 151 -6 0 -19 14 -29 31 -25 41 -31 22 -31 -99 0 -88 6 -170
40 -527 15 -157 31 -238 53 -265 28 -35 78 -69 95 -64 11 4 13 3 5 -3 -17 -12
-1 -73 43 -168 45 -97 57 -184 28 -216 -37 -41 -143 -78 -212 -73 -57 4 -175
71 -241 137 -33 33 -61 64 -61 68 0 4 28 -21 63 -56 90 -90 231 -150 292 -125
11 5 16 9 12 9 -4 1 5 12 20 25 33 28 45 25 18 -4 -18 -20 -17 -20 8 -20 17 0
32 9 42 24 9 13 24 26 34 29 22 6 35 54 26 97 -7 32 -19 39 -29 15 -3 -8 -12
-15 -20 -15 -8 0 -17 -10 -19 -22 -2 -13 -4 -5 -5 17 0 22 4 51 8 65 8 24 8
23 9 -7 1 -18 6 -33 11 -33 18 0 11 59 -14 118 -13 31 -29 74 -35 94 -7 22
-29 50 -55 72 -70 57 -80 107 -122 641 -16 198 -13 317 8 342 13 16 14 16 38
3z m191 -233 c-10 -9 -11 -8 -5 6 3 10 9 15 12 12 3 -3 0 -11 -7 -18z m1169
-27 c-18 -33 -61 -55 -124 -62 -83 -9 -189 -24 -261 -38 -78 -15 -78 -15 -90
-21 -5 -4 -35 -12 -65 -19 -30 -7 -66 -18 -80 -25 -14 -6 -47 -23 -75 -36 -56
-26 -128 -96 -155 -150 -17 -33 -20 -89 -11 -189 1 -9 10 -2 22 17 24 38 72
56 114 44 30 -9 30 -9 -8 -8 -37 0 -93 -29 -88 -47 2 -5 -1 -12 -6 -15 -35
-24 -58 -179 -39 -256 4 -16 10 -50 12 -75 5 -47 64 -220 74 -220 4 0 14 26
23 58 23 85 85 170 170 233 92 68 153 125 179 167 37 59 148 113 161 78 4 -9
13 -16 21 -16 8 0 27 -6 43 -14 15 -8 45 -21 66 -30 21 -9 60 -37 88 -62 27
-26 49 -43 49 -39 0 21 -90 122 -133 148 -52 32 -59 46 -10 22 39 -19 140
-126 181 -191 60 -94 127 -278 139 -379 3 -27 9 -55 13 -60 12 -15 5 -292 -8
-345 -35 -139 -89 -249 -123 -250 -14 0 -16 -50 -3 -61 24 -20 16 -31 -18 -23
-18 3 -38 15 -45 24 -11 16 -64 34 -133 46 -43 8 -87 33 -114 65 -40 48 -31
54 14 9 52 -52 70 -58 160 -55 133 4 174 39 225 188 32 96 45 277 26 378 -6
35 -13 78 -16 94 -2 17 -9 48 -15 70 -6 22 -12 48 -15 57 -2 10 -11 28 -19 40
-9 12 -16 28 -16 35 0 6 -5 24 -12 40 -6 15 -12 30 -13 33 -8 24 -22 49 -39
73 -19 26 -25 28 -60 22 -44 -6 -149 -55 -181 -82 -28 -24 -110 -126 -141
-175 -63 -100 -83 -318 -42 -470 28 -104 74 -206 118 -259 29 -34 37 -52 33
-71 -3 -14 0 -29 6 -32 6 -4 11 -14 11 -23 0 -13 -9 -14 -57 -8 -32 4 -62 11
-68 17 -10 10 69 3 104 -10 14 -5 14 -3 -1 14 -9 11 -28 20 -41 22 -198 16
-401 148 -462 301 -35 87 -51 169 -54 285 -2 74 -9 114 -26 161 -13 35 -34
100 -45 146 -23 88 -24 112 -23 485 0 65 17 111 59 159 15 17 32 39 40 50 32
48 275 143 414 162 19 2 73 11 119 19 46 8 97 14 114 14 34 0 117 36 117 51 0
5 7 9 15 9 13 0 14 -4 5 -20z m-85 -5 c-16 -7 -32 -11 -35 -9 -7 8 24 24 45
23 15 0 13 -4 -10 -14z m-1255 -32 c0 -22 -2 -25 -10 -13 -13 20 -13 40 0 40
6 0 10 -12 10 -27z m3248 -23 c46 -36 99 -59 177 -76 67 -14 199 -51 230 -63
60 -25 69 -30 58 -30 -7 -1 -36 8 -64 19 -28 12 -54 18 -57 15 -3 -3 -3 -7 -1
-8 17 -15 163 -107 169 -107 12 0 81 -62 92 -83 5 -11 -17 3 -50 29 -140 113
-269 181 -396 209 -86 19 -246 107 -246 136 0 14 48 -9 88 -41z m-3251 -67
c-3 -10 -5 -2 -5 17 0 19 2 27 5 18 2 -10 2 -26 0 -35z m10 -85 c-2 -13 -4 -5
-4 17 -1 22 1 32 4 23 2 -10 2 -28 0 -40z m22 -178 c1 -61 12 -151 25 -205 2
-10 9 -23 53 -105 l25 -45 -36 40 c-39 44 -51 76 -65 175 -13 88 -22 308 -11
255 5 -22 9 -74 9 -115z m4986 -29 c-15 -29 -29 -50 -33 -47 -3 3 8 33 24 66
16 33 30 54 32 47 2 -8 -9 -37 -23 -66z m-1905 39 c-20 -13 -43 -13 -35 0 3 6
16 10 28 10 18 0 19 -2 7 -10z m-82 -14 c-10 -7 -18 -18 -18 -23 0 -15 -49
-45 -60 -38 -15 9 27 63 53 68 39 8 42 7 25 -7z m-3648 -16 c0 -5 -4 -10 -10
-10 -5 0 -10 5 -10 10 0 6 5 10 10 10 6 0 10 -4 10 -10z m3690 1 c0 -5 -7 -11
-15 -15 -9 -3 -15 0 -15 9 0 8 7 15 15 15 8 0 15 -4 15 -9z m-3630 -43 c0 -12
-13 -9 -32 6 -26 19 -22 26 7 13 14 -7 25 -15 25 -19z m4460 -8 c15 -55 -3
-120 -33 -120 -5 0 -2 9 9 21 21 23 23 101 3 125 -8 10 -8 14 -1 14 6 0 16
-18 22 -40z m-3330 9 c0 -5 -2 -9 -4 -9 -2 0 -11 -3 -19 -6 -8 -3 -17 1 -19 8
-4 8 3 14 18 14 13 1 24 -2 24 -7z m-1774 -52 c88 -78 141 -119 221 -171 72
-46 94 -66 73 -66 -13 0 -53 22 -61 34 -4 5 -17 6 -30 3 -24 -6 -49 7 -49 26
0 7 4 7 12 -1 7 -7 17 -12 22 -12 13 0 -106 109 -119 110 -13 0 -151 130 -138
130 5 0 36 -24 69 -53z m324 43 c0 -5 -9 -10 -21 -10 -11 0 -17 5 -14 10 3 6
13 10 21 10 8 0 14 -4 14 -10z m1513 3 c-7 -2 -21 -2 -30 0 -10 3 -4 5 12 5
17 0 24 -2 18 -5z m500 -63 c23 -11 31 -18 17 -14 -93 21 -125 25 -203 26 -78
0 -95 -3 -144 -28 -39 -20 -66 -44 -90 -78 -35 -51 -43 -51 -15 0 28 51 94 97
163 114 59 15 226 2 272 -20z m4602 4 c30 -20 24 -49 -7 -33 -12 6 -55 9 -99
7 -44 -2 -79 0 -79 3 0 9 55 19 106 19 24 0 44 5 44 10 0 14 7 13 35 -6z
m-4698 -20 c-3 -3 -12 -4 -19 -1 -8 3 -5 6 6 6 11 1 17 -2 13 -5z m2696 -22
c15 -8 49 -17 75 -21 34 -6 42 -10 29 -16 -14 -6 -7 -15 42 -49 93 -65 131
-121 145 -211 7 -48 -8 -82 -18 -40 -4 14 -4 30 -1 35 4 6 3 16 -2 23 -4 6 -8
17 -9 24 -4 23 -64 101 -109 140 -72 63 -204 122 -272 123 -38 0 -112 -17
-163 -37 l-35 -13 40 5 c39 6 44 3 145 -81 58 -47 113 -90 122 -95 29 -15 98
-85 98 -98 0 -7 13 -29 29 -49 30 -38 61 -125 61 -173 0 -15 5 -31 10 -34 11
-7 9 -133 -2 -151 -4 -6 -5 -19 -4 -30 2 -10 -1 -25 -7 -31 -5 -7 -7 -13 -4
-13 3 0 -3 -26 -13 -57 -34 -112 -146 -271 -202 -288 -13 -4 -30 -13 -38 -20
-24 -20 -78 -26 -126 -13 -24 7 -43 15 -42 18 2 3 20 40 41 82 21 42 45 110
53 150 18 83 26 286 12 294 -5 3 -7 12 -4 20 3 8 2 22 -3 32 -4 9 -16 42 -25
72 -10 30 -34 79 -53 109 -48 74 -171 195 -224 220 l-43 21 -23 -27 c-30 -37
-99 -176 -117 -237 -35 -117 -47 -398 -19 -451 6 -11 23 -51 37 -89 28 -71 67
-135 114 -186 15 -15 36 -39 48 -52 43 -48 82 -75 108 -72 14 1 29 -2 32 -8 5
-7 1 -9 -9 -5 -28 11 -19 -7 21 -42 43 -38 85 -56 202 -83 179 -41 358 -6 508
101 17 11 40 21 51 21 18 0 20 4 15 25 -4 15 -2 25 5 25 12 0 15 -39 3 -56 -7
-11 -42 -28 -53 -26 -4 1 -16 -10 -29 -23 -12 -13 -28 -21 -36 -18 -8 3 -14
-1 -14 -9 0 -12 -74 -39 -220 -80 -46 -13 -240 -1 -257 15 -3 4 -13 7 -22 7
-9 0 -55 20 -103 43 -71 35 -105 60 -192 144 -58 57 -106 105 -106 108 0 3
-18 33 -40 67 -65 100 -92 200 -93 348 -2 161 2 212 25 284 10 32 18 65 18 72
0 13 33 78 51 100 6 7 18 28 27 47 38 79 217 202 312 214 19 3 37 7 40 10 11
10 187 -2 213 -15z m-4189 -42 c14 -27 26 -58 26 -67 0 -10 -14 9 -30 41 -28
55 -35 76 -26 76 2 0 16 -22 30 -50z m543 3 c-3 -10 -5 -2 -5 17 0 19 2 27 5
18 2 -10 2 -26 0 -35z m5656 -5 c-15 -12 -44 -35 -63 -52 -19 -17 -11 -5 19
26 30 31 58 55 63 52 5 -3 -4 -15 -19 -26z m-6147 -120 c1 -7 5 -26 8 -43 4
-17 -2 -8 -14 20 -11 28 -20 52 -20 55 0 9 24 -20 26 -32z m1076 7 c-2 -14 -8
-28 -13 -31 -10 -6 -11 2 -3 34 9 30 22 28 16 -3z m4949 -28 c-8 -8 -11 -7
-11 4 0 20 13 34 18 19 3 -7 -1 -17 -7 -23z m-6384 -39 c-6 -24 -13 -36 -15
-27 -3 15 14 69 22 69 2 0 -1 -19 -7 -42z m115 0 c-8 -8 -9 -4 -5 13 4 13 8
18 11 10 2 -7 -1 -18 -6 -23z m-202 18 c0 -3 -4 -8 -10 -11 -5 -3 -10 -1 -10
4 0 6 5 11 10 11 6 0 10 -2 10 -4z m170 -16 c0 -5 -12 -10 -26 -10 -14 0 -23
4 -19 10 3 6 15 10 26 10 10 0 19 -4 19 -10z m864 1 c8 -13 -3 -19 -24 -14
-11 3 -17 9 -14 14 7 11 31 12 38 0z m-850 -78 c-18 -49 -41 -86 -31 -48 4 11
9 34 13 50 7 32 24 59 31 51 3 -3 -3 -26 -13 -53z m305 -43 c0 -3 -6 6 -14 20
-8 14 -14 39 -14 55 0 24 3 20 14 -20 8 -27 14 -52 14 -55z m6216 81 c-3 -6
-11 -11 -17 -11 -6 0 -6 6 2 15 14 17 26 13 15 -4z m-1248 -175 c-7 -108 -32
-228 -59 -280 -39 -74 -29 -249 18 -323 8 -12 14 -28 14 -35 0 -18 71 -161 84
-170 8 -6 8 -8 0 -8 -13 0 -65 79 -100 152 -13 29 -29 60 -34 68 -34 59 -45
100 -45 173 0 76 0 77 -17 56 -10 -11 -18 -29 -18 -38 0 -9 -4 -21 -10 -27
-10 -10 -11 -15 -25 -91 -4 -25 -12 -40 -18 -36 -6 4 -8 -3 -3 -20 7 -29 -2
-60 -15 -51 -22 13 -2 115 41 209 11 22 24 59 30 83 6 23 15 42 19 42 11 0 51
98 55 131 1 14 5 29 8 34 14 25 30 120 25 151 -6 33 0 55 26 113 11 23 12 23
20 -10 5 -19 7 -74 4 -123z m1253 147 c0 -5 -7 -17 -15 -27 -12 -16 -18 -17
-27 -8 -9 9 -8 12 5 12 10 0 20 7 23 15 6 16 14 20 14 8z m-6643 -45 c-3 -7
-5 -2 -5 12 0 14 2 19 5 13 2 -7 2 -19 0 -25z m69 -10 c5 -7 3 -8 -6 -3 -8 5
-18 1 -27 -10 -11 -16 -13 -16 -13 -3 0 15 12 25 32 27 4 1 10 -4 14 -11z
m398 -72 c7 -19 6 -19 -14 -1 -11 10 -20 27 -20 39 0 20 0 20 13 1 8 -11 17
-29 21 -39z m-394 8 c0 -8 -4 -12 -10 -9 -5 3 -10 10 -10 16 0 5 5 9 10 9 6 0
10 -7 10 -16z m5220 12 c0 -3 -4 -8 -10 -11 -5 -3 -10 -1 -10 4 0 6 5 11 10
11 6 0 10 -2 10 -4z m-5270 -16 c0 -5 -5 -10 -11 -10 -5 0 -7 5 -4 10 3 6 8
10 11 10 2 0 4 -4 4 -10z m80 -30 c0 -5 -2 -10 -4 -10 -3 0 -8 5 -11 10 -3 6
-1 10 4 10 6 0 11 -4 11 -10z m-84 -25 c9 -37 0 -40 -13 -5 -6 17 -7 30 -2 30
5 0 11 -11 15 -25z m58 -36 c-3 -5 -10 -7 -15 -3 -5 3 -7 10 -3 15 3 5 10 7
15 3 5 -3 7 -10 3 -15z m296 -14 c0 -8 -4 -15 -10 -15 -5 0 -10 7 -10 15 0 8
5 15 10 15 6 0 10 -7 10 -15z m-367 -26 c-5 -19 -3 -21 21 -17 21 4 24 3 15
-8 -16 -20 -4 -71 26 -106 25 -30 32 -48 17 -48 -8 0 -23 22 -64 97 -26 48
-39 121 -19 109 5 -3 7 -16 4 -27z m904 -1 c-3 -8 -6 -5 -6 6 -1 11 2 17 5 13
3 -3 4 -12 1 -19z m-567 -94 c0 -8 -4 -12 -10 -9 -5 3 -10 10 -10 16 0 5 5 9
10 9 6 0 10 -7 10 -16z m-192 -179 c9 -34 17 -45 32 -45 13 0 18 -5 14 -15 -6
-13 82 -134 143 -199 44 -46 306 -226 329 -226 8 0 14 -4 14 -10 0 -5 19 -22
42 -37 29 -20 37 -29 25 -31 -15 -3 -15 -7 -3 -36 19 -46 38 -164 33 -209 -7
-66 -22 -60 -19 7 2 35 -1 79 -7 97 -25 83 -40 115 -60 124 -24 11 -28 25 -6
25 8 0 15 5 15 10 0 6 -4 10 -10 10 -13 0 -139 82 -222 144 -37 28 -83 62
-103 76 -19 14 -44 39 -55 55 -11 17 -38 53 -60 80 -72 89 -117 159 -124 192
-4 17 -14 37 -22 44 -8 6 -14 16 -14 22 0 26 47 -37 58 -78z m182 65 c0 -11
-4 -20 -10 -20 -5 0 -10 2 -10 4 0 2 -3 11 -6 20 -4 11 -1 16 10 16 9 0 16 -8
16 -20z m3737 -172 c-3 -8 -6 -5 -6 6 -1 11 2 17 5 13 3 -3 4 -12 1 -19z m63
-9 c0 -11 -4 -17 -10 -14 -5 3 -10 13 -10 21 0 8 5 14 10 14 6 0 10 -9 10 -21z
m10 -44 c0 -8 -2 -15 -4 -15 -2 0 -6 7 -10 15 -3 8 -1 15 4 15 6 0 10 -7 10
-15z m-2027 -27 c-5 -7 -9 -35 -8 -63 0 -46 2 -50 23 -50 18 0 30 11 48 43 13
23 24 49 24 57 0 20 -20 19 -35 -2 -11 -15 -13 -15 -24 5 -11 21 -10 22 23 22
44 0 60 -26 51 -80 -10 -57 -71 -105 -111 -87 -23 10 -54 56 -54 81 0 14 56
86 67 86 3 0 1 -6 -4 -12z m1187 2 c34 -4 -33 -7 -180 -7 -139 0 -206 3 -165
7 99 9 280 9 345 0z m890 -76 c0 -4 6 -15 14 -23 8 -9 17 -33 20 -54 3 -21 13
-51 21 -68 9 -17 11 -29 5 -29 -6 0 -15 11 -22 25 -6 13 -14 23 -17 20 -4 -2
-6 12 -6 31 1 19 -2 34 -7 34 -4 0 -8 6 -8 13 0 7 -11 37 -25 65 -14 29 -25
55 -25 59 0 4 11 -9 25 -29 14 -20 25 -40 25 -44z m-765 35 c-59 -12 -608 -11
-600 1 4 6 121 10 323 9 196 -1 302 -4 277 -10z m1645 -5 c0 -8 -5 -12 -10 -9
-6 4 -8 11 -5 16 9 14 15 11 15 -7z m10 -46 c0 -24 -16 -39 -34 -32 -16 6 -16
8 0 25 20 22 34 25 34 7z m-1020 -23 c7 -8 8 -15 2 -15 -5 0 -15 7 -22 15 -7
8 -8 15 -2 15 5 0 15 -7 22 -15z m20 -40 c7 -9 8 -15 2 -15 -5 0 -12 7 -16 15
-3 8 -4 15 -2 15 2 0 9 -7 16 -15z m-2851 -159 c28 -57 104 -108 181 -122 14
-3 41 -9 60 -14 44 -11 184 -15 230 -7 19 4 47 9 61 11 14 2 47 11 73 20 26 9
57 16 69 16 32 1 98 33 139 69 20 17 44 31 54 31 30 0 -50 -64 -124 -100 -103
-50 -202 -72 -326 -74 -61 0 -122 2 -136 5 -14 4 -45 10 -70 14 -68 10 -187
72 -209 109 -18 30 -36 86 -27 86 2 0 14 -20 25 -44z m4268 19 c9 -25 -4 -29
-17 -6 -7 15 -7 21 0 21 6 0 13 -7 17 -15z m-1871 -203 c1 -45 5 -103 8 -129
4 -27 11 -79 16 -118 12 -90 12 -85 -4 -85 -19 0 -66 57 -66 80 0 10 -4 22
-10 25 -14 9 -12 80 5 193 19 116 21 125 38 119 8 -2 12 -30 13 -85z m-1104
-13 c0 -46 6 -87 11 -91 7 -4 7 -11 1 -20 -6 -7 -9 -34 -9 -60 1 -27 -3 -48
-8 -48 -5 0 -7 -16 -4 -35 3 -19 2 -35 -4 -35 -10 0 -13 363 -2 373 11 12 13
2 15 -84z m90 15 c43 -46 56 -67 57 -93 1 -8 -13 7 -29 33 -20 31 -36 46 -45
42 -9 -3 -12 0 -9 8 3 8 -5 23 -17 35 -13 12 -18 21 -11 21 6 0 30 -21 54 -46z
m-2891 -48 c13 -14 27 -26 30 -26 8 0 60 -44 103 -85 54 -53 127 -109 248
-188 64 -43 120 -82 123 -87 8 -13 -13 -13 -28 1 -7 6 -64 46 -127 90 -63 43
-146 108 -185 142 -38 35 -99 88 -135 117 -36 29 -72 60 -80 68 -13 13 -13 13
6 4 12 -6 32 -23 45 -36z m2893 -12 c8 -21 8 -24 -3 -24 -5 0 -11 9 -14 20 -6
24 8 27 17 4z m1 -54 c3 -5 1 -10 -4 -10 -6 0 -11 5 -11 10 0 6 2 10 4 10 3 0
8 -4 11 -10z m-7 -32 c19 -19 14 -34 -10 -35 -16 -2 -19 0 -9 6 9 6 10 11 2
15 -13 8 -15 26 -3 26 4 0 13 -5 20 -12z m-2958 -11 c0 -2 -10 -12 -22 -23
l-23 -19 19 23 c18 21 26 27 26 19z m2975 -50 c11 -1 26 -8 33 -16 11 -14 11
-14 6 2 -3 9 -1 17 5 17 13 0 15 -36 2 -44 -5 -3 -14 1 -21 9 -17 20 -26 19
-50 -5 -20 -20 -56 -28 -45 -10 4 6 10 8 15 5 14 -9 21 27 8 43 -11 14 -10 15
7 7 11 -4 29 -8 40 -8z m29 -86 c7 -11 10 -11 17 0 6 9 9 10 9 2 0 -22 -15
-21 -43 2 -15 13 -27 27 -27 31 0 9 33 -17 44 -35z m-2397 -127 c-3 -3 -12 -4
-19 -1 -8 3 -5 6 6 6 11 1 17 -2 13 -5z m3211 -481 c-10 -2 -28 -2 -40 0 -13
2 -5 4 17 4 22 1 32 -1 23 -4z m-2204 -201 c-54 -53 -143 -102 -169 -92 -22 9
-16 13 39 25 33 7 100 51 135 89 14 14 27 24 29 21 3 -2 -13 -22 -34 -43z
m-181 -305 c-8 -13 -23 3 -23 26 0 20 0 20 14 2 8 -11 12 -23 9 -28z m864 17
c-3 -3 -12 -4 -19 -1 -8 3 -5 6 6 6 11 1 17 -2 13 -5z m-815 -320 c2 -19 0
-37 -4 -40 -4 -3 -8 13 -8 35 0 51 6 53 12 5z m418 26 c0 -5 -4 -10 -10 -10
-5 0 -10 5 -10 10 0 6 5 10 10 10 6 0 10 -4 10 -10z m670 -102 c0 -5 -4 -7 -9
-4 -5 4 -11 0 -14 -6 -2 -7 -7 -10 -11 -7 -11 11 5 38 20 32 8 -3 14 -9 14
-15z m-480 -18 c0 -5 -12 -10 -27 -10 -22 0 -25 2 -13 10 20 13 40 13 40 0z"/>
<path d="M6915 3372 c2 -28 9 -60 15 -70 9 -14 10 -11 4 13 -4 17 -11 48 -15
70 -7 36 -8 35 -4 -13z"/>
<path d="M6458 9164 c-16 -8 -28 -19 -28 -25 0 -13 41 -1 55 15 6 7 17 15 25
19 11 4 9 6 -5 6 -11 0 -32 -7 -47 -15z"/>
<path d="M2160 8973 c-8 -3 -34 -14 -57 -24 -23 -11 -48 -19 -56 -19 -8 0 -26
-9 -39 -20 -14 -10 -44 -22 -67 -26 -22 -4 -41 -11 -41 -16 0 -5 -13 -13 -28
-19 -58 -20 -202 -95 -196 -102 4 -4 2 -7 -5 -7 -7 0 -31 -15 -54 -32 -51 -40
-197 -187 -197 -199 0 -4 -13 -27 -29 -51 -16 -24 -36 -61 -45 -83 -10 -22
-27 -51 -40 -65 -27 -30 -55 -99 -48 -119 3 -10 0 -12 -12 -8 -13 5 -22 -6
-42 -51 -39 -87 -54 -132 -44 -132 6 0 10 -4 10 -10 0 -5 -3 -9 -7 -9 -20 3
-26 -2 -13 -11 13 -9 13 -10 0 -10 -17 0 -53 -87 -39 -95 4 -3 1 -21 -7 -40
-8 -19 -13 -38 -12 -42 0 -5 -2 -15 -5 -23 -24 -59 -58 -322 -41 -319 19 3 34
-1 34 -10 0 -5 -9 -7 -19 -4 -12 3 -29 -4 -43 -17 -17 -17 -19 -21 -5 -17 21
8 22 -2 1 -32 -14 -19 -14 -25 -3 -32 11 -7 12 -12 2 -29 -7 -11 -13 -30 -13
-42 1 -19 5 -17 25 17 33 53 32 32 -2 -41 -26 -56 -27 -68 -29 -229 -2 -93 2
-217 7 -275 10 -111 13 -576 5 -670 l-5 -55 13 50 c37 138 65 290 71 375 7
104 31 240 46 254 12 13 11 2 -6 -119 -8 -55 -14 -116 -14 -135 0 -32 3 -29
38 45 36 75 82 131 176 212 62 55 224 110 294 100 111 -14 287 -160 349 -288
89 -184 122 -365 129 -713 4 -177 9 -233 19 -244 9 -9 14 -10 14 -2 0 7 34 62
75 123 71 107 186 237 210 237 6 0 28 9 49 20 66 33 138 43 219 30 95 -16 195
-48 217 -70 10 -10 21 -16 23 -13 12 12 44 -22 45 -48 0 -15 5 -37 11 -48 6
-11 11 -29 11 -40 0 -38 17 -22 30 26 6 26 15 52 20 58 4 5 28 48 52 95 24 47
58 107 76 133 18 26 46 68 64 95 17 26 47 63 66 84 l34 36 -50 50 c-112 111
-155 181 -201 325 -23 71 -52 252 -60 372 -10 148 -6 226 19 330 38 161 38
152 -11 195 -24 22 -49 40 -56 40 -24 0 -44 -14 -59 -41 -11 -22 -20 -28 -37
-24 -12 2 -81 11 -153 19 -126 14 -220 37 -479 117 -55 17 -123 40 -150 50
-28 10 -55 19 -61 19 -8 0 -167 75 -313 148 -19 9 -89 72 -157 139 l-124 122
-2 -132 -1 -132 -8 135 c-4 74 -6 175 -4 224 3 81 6 92 36 135 41 57 92 107
131 127 16 8 91 29 165 45 170 37 213 58 291 138 69 69 117 155 138 241 20 83
18 89 -26 73z m-450 -249 c0 -8 -4 -12 -10 -9 -5 3 -10 10 -10 16 0 5 5 9 10
9 6 0 10 -7 10 -16z m-416 -479 c-4 -8 -8 -15 -10 -15 -2 0 -4 7 -4 15 0 8 4
15 10 15 5 0 7 -7 4 -15z m46 -24 c0 -6 -4 -13 -10 -16 -5 -3 -10 1 -10 9 0 9
5 16 10 16 6 0 10 -4 10 -9z m-19 -106 l-9 -40 -1 51 c-1 28 2 54 7 58 11 12
14 -25 3 -69z m-71 41 c0 -8 -7 -16 -15 -20 -17 -6 -18 -4 -9 18 8 20 24 21
24 2z m-20 -46 c0 -5 -4 -10 -10 -10 -5 0 -10 5 -10 10 0 6 5 10 10 10 6 0 10
-4 10 -10z m90 -47 c0 -5 -5 -15 -10 -23 -8 -12 -10 -11 -10 8 0 12 5 22 10
22 6 0 10 -3 10 -7z m-110 -11 c0 -5 -6 -17 -14 -28 -19 -25 -31 -12 -14 15
13 21 28 28 28 13z m10 -46 c0 -2 -7 -9 -15 -16 -12 -10 -15 -10 -15 4 0 9 7
16 15 16 8 0 15 -2 15 -4z m71 -57 c-9 -22 -10 -22 -10 -3 -1 11 2 24 6 27 12
12 14 0 4 -24z m-20 -76 c-12 -20 -14 -14 -5 12 4 9 9 14 11 11 3 -2 0 -13 -6
-23z m160 -123 c-9 -45 -9 -45 -10 -9 -1 20 2 52 6 70 7 30 8 31 11 9 1 -14
-2 -45 -7 -70z m-14 -117 c-2 -16 -4 -5 -4 22 0 28 2 40 4 28 2 -13 2 -35 0
-50z m383 45 c0 -6 -6 -5 -15 2 -8 7 -15 14 -15 16 0 2 7 1 15 -2 8 -4 15 -11
15 -16z m106 -63 c10 -8 15 -14 9 -14 -5 0 -19 6 -29 14 -11 8 -15 15 -10 15
6 0 19 -7 30 -15z m-506 -62 c-11 -17 -11 -17 -6 0 3 10 7 26 7 35 1 15 2 15
6 0 2 -10 -1 -25 -7 -35z m715 -40 c11 -7 14 -13 8 -13 -17 0 -113 44 -113 52
0 8 77 -21 105 -39z m-728 -15 c-3 -8 -6 -5 -6 6 -1 11 2 17 5 13 3 -3 4 -12
1 -19z m-237 -8 c0 -5 -5 -10 -11 -10 -5 0 -7 5 -4 10 3 6 8 10 11 10 2 0 4
-4 4 -10z m1074 -10 c16 -6 26 -13 23 -16 -6 -6 -107 26 -107 33 0 7 47 -2 84
-17z m-847 -22 c-3 -8 -6 -5 -6 6 -1 11 2 17 5 13 3 -3 4 -12 1 -19z m983 -19
c41 -12 89 -23 105 -26 17 -3 37 -9 46 -13 14 -8 161 -30 198 -30 10 0 12 -3
5 -10 -15 -15 -227 24 -349 65 -114 39 -116 45 -5 14z m-1045 -175 c-30 -93
-58 -184 -61 -202 -4 -18 -10 -35 -15 -38 -5 -3 -9 -18 -9 -33 0 -15 -4 -31
-8 -37 -5 -5 -14 -34 -21 -64 -17 -77 -43 -150 -53 -150 -11 0 -10 18 3 41 6
11 17 46 25 77 8 31 37 127 63 212 27 85 57 182 67 215 10 33 24 71 31 85 7
14 13 32 13 41 0 16 10 32 17 26 1 -2 -22 -80 -52 -173z m-204 143 c-10 -9
-11 -8 -5 6 3 10 9 15 12 12 3 -3 0 -11 -7 -18z m-11 -27 c0 -5 -5 -10 -11
-10 -5 0 -7 5 -4 10 3 6 8 10 11 10 2 0 4 -4 4 -10z m-30 -50 c0 -5 -5 -10
-11 -10 -5 0 -7 5 -4 10 3 6 8 10 11 10 2 0 4 -4 4 -10z m1790 -40 c0 -5 -6
-10 -12 -11 -9 0 -9 -2 -2 -5 11 -4 3 -82 -11 -103 -11 -18 -35 -263 -34 -351
1 -103 8 -164 32 -250 22 -82 30 -137 19 -125 -13 13 -37 102 -53 192 -14 84
-6 470 11 542 6 24 8 46 5 49 -16 16 -67 -65 -155 -243 -54 -110 -121 -240
-149 -288 -28 -49 -51 -94 -51 -100 -1 -7 -8 -30 -16 -52 -8 -22 -38 -103 -65
-180 -27 -77 -47 -126 -44 -110 7 38 95 307 104 320 4 6 13 28 19 51 7 23 23
57 36 76 23 34 136 260 136 272 0 4 11 24 25 46 14 22 32 59 42 82 20 52 100
175 122 188 21 12 41 12 41 0z m-80 -24 c0 -9 -98 -59 -170 -87 -41 -16 -84
-34 -95 -39 -38 -18 -165 -52 -177 -48 -6 2 48 24 122 48 122 40 157 54 275
111 43 20 45 21 45 15z m-460 -180 c0 -2 -9 -6 -20 -9 -11 -3 -18 -1 -14 4 5
9 34 13 34 5z m-55 -16 c-3 -5 -15 -10 -25 -10 -10 0 -21 -4 -24 -9 -3 -5 -36
-14 -73 -21 -38 -7 -92 -21 -122 -32 -30 -10 -59 -18 -65 -18 -20 1 41 29 85
40 24 6 85 21 134 35 50 13 91 24 93 25 2 0 0 -4 -3 -10z m-345 -95 c0 -7 -57
-35 -72 -35 -7 0 3 8 22 19 37 20 50 24 50 16z m-135 -60 c-27 -13 -57 -24
-65 -24 -9 -1 -62 -21 -118 -46 -110 -49 -112 -49 -112 -36 0 8 183 84 236 97
15 4 39 13 53 20 14 8 33 14 41 13 8 0 -7 -11 -35 -24z m1115 -572 c17 -48 42
-108 55 -133 48 -93 68 -144 81 -204 12 -57 19 -155 10 -145 -2 2 -12 49 -21
104 -10 58 -25 110 -36 126 -10 15 -19 33 -19 41 0 7 -16 44 -35 81 -19 38
-35 76 -35 85 0 10 -6 27 -14 38 -15 20 -32 94 -23 94 3 0 19 -39 37 -87z
m-595 -224 c-23 -82 -65 -182 -51 -124 15 62 69 226 73 221 3 -2 -7 -46 -22
-97z m-169 -515 c-3 -9 -6 -22 -6 -30 0 -8 -4 -14 -8 -14 -5 0 -7 14 -4 30 2
17 9 30 14 30 6 0 7 -7 4 -16z"/>
<path d="M3128 7629 c-22 -23 -13 -49 17 -47 20 2 21 5 14 31 -11 37 -11 37
-31 16z"/>
<path d="M3060 7602 c-19 -9 -36 -17 -38 -18 -2 -1 4 -16 13 -33 13 -26 18
-29 29 -19 12 12 39 79 34 83 -2 2 -19 -5 -38 -13z"/>
<path d="M3116 7554 c-10 -27 -7 -64 7 -64 16 1 65 39 50 40 -18 0 -16 20 2
20 8 0 15 -4 15 -10 0 -5 7 -7 15 -4 24 10 17 21 -15 26 -25 4 -31 0 -41 -24
-7 -18 -15 -26 -21 -20 -6 6 -6 18 1 31 7 12 8 21 2 21 -5 0 -12 -7 -15 -16z"/>
<path d="M8875 7511 c27 -28 51 -51 52 -51 10 0 -44 61 -71 80 -22 16 -16 8
19 -29z"/>
<path d="M5117 7353 c39 -38 80 -87 92 -110 25 -51 34 -56 18 -11 -13 34 -152
188 -170 188 -6 0 21 -30 60 -67z"/>
<path d="M8030 6152 c-13 -47 -13 -69 0 -77 6 -3 7 1 4 9 -3 9 -1 16 5 16 6 0
11 -10 11 -22 0 -13 18 -43 40 -68 37 -41 39 -42 30 -15 -5 17 -17 64 -25 106
-12 60 -20 78 -35 82 -16 4 -22 -2 -30 -31z"/>
<path d="M8140 5908 c0 -7 5 -20 10 -28 8 -12 10 -11 10 7 0 12 -4 25 -10 28
-5 3 -10 0 -10 -7z"/>
<path d="M8180 5820 c0 -5 5 -10 11 -10 5 0 7 5 4 10 -3 6 -8 10 -11 10 -2 0
-4 -4 -4 -10z"/>
<path d="M2913 5576 c-21 -24 -69 -70 -107 -102 -39 -32 -79 -68 -91 -79 -36
-34 -148 -169 -190 -228 -22 -31 -46 -57 -52 -57 -7 0 -32 -9 -55 -19 -24 -11
-63 -27 -88 -37 -84 -34 -220 -133 -220 -160 0 -21 -103 -72 -144 -72 -22 0
-42 -6 -46 -13 -27 -45 -66 -89 -80 -89 -9 0 -22 11 -28 24 -12 27 -51 36 -98
24 -32 -8 -94 -76 -94 -102 0 -8 -8 -17 -17 -19 -31 -9 -141 -24 -186 -26 -9
-1 -38 -28 -63 -60 -47 -61 -59 -65 -95 -34 -9 7 -19 10 -22 6 -4 -3 -7 1 -7
10 0 11 -5 14 -17 10 -12 -5 -15 -2 -10 10 4 12 -6 26 -34 49 -55 44 -92 80
-106 104 -6 10 -16 18 -23 16 -6 -1 -9 2 -6 7 4 5 -20 25 -51 45 -65 41 -71
38 -71 -39 0 -27 -5 -97 -11 -154 -6 -58 -8 -107 -3 -110 13 -9 102 -199 102
-218 0 -28 -38 15 -65 74 -50 109 -183 277 -261 328 -79 53 -86 50 -107 -47
-9 -46 -19 -110 -23 -143 -3 -33 -14 -103 -25 -155 -11 -52 -23 -150 -26 -218
-3 -67 -9 -125 -13 -127 -11 -7 -19 65 -19 170 -1 86 -2 91 -37 142 -41 59
-122 141 -176 178 l-37 25 0 -219 -1 -218 58 -21 c31 -12 85 -22 119 -24 35
-2 63 -6 63 -10 0 -9 3 -9 -80 -10 -36 0 -78 5 -93 11 -35 14 -74 14 -82 1 -8
-12 11 -171 30 -250 13 -57 79 -191 121 -247 13 -17 24 -36 24 -42 0 -6 4 -11
9 -11 5 0 12 -8 15 -17 3 -10 21 -35 38 -55 18 -20 49 -58 68 -84 91 -121 160
-200 282 -324 66 -67 215 -180 237 -180 7 0 22 -6 34 -14 26 -17 117 -34 172
-32 75 3 139 26 190 67 11 9 32 19 46 23 15 3 49 26 75 51 27 26 40 42 29 36
-11 -5 -29 -18 -40 -28 -29 -27 -55 -36 -55 -18 0 8 4 15 9 15 17 0 94 89 132
150 51 84 64 196 64 565 0 233 -9 308 -51 449 -13 44 -24 83 -24 88 0 5 -16
35 -36 66 -39 60 -91 117 -136 146 -15 10 -25 23 -22 28 4 5 -15 32 -41 58
-26 26 -45 54 -43 60 2 7 23 -13 48 -44 24 -32 53 -64 64 -72 45 -31 156 -170
174 -219 36 -96 44 -120 58 -180 34 -139 39 -195 38 -425 -1 -234 -5 -300 -25
-415 -11 -65 -39 -145 -51 -145 -5 0 -8 -7 -8 -15 0 -8 2 -15 5 -15 2 0 47 31
99 69 172 124 380 211 508 211 56 0 59 -1 72 -32 15 -32 15 -31 10 32 -3 36
-7 99 -9 140 -3 41 -9 95 -14 120 -31 153 -41 193 -66 260 -15 41 -31 84 -36
95 -28 63 -40 347 -20 470 11 71 34 137 57 165 7 8 17 33 23 55 6 23 28 64 48
92 21 29 54 75 73 102 19 28 52 74 72 103 20 29 47 68 60 87 13 18 41 53 63
76 22 24 56 62 75 85 19 23 52 59 72 80 20 20 40 50 44 66 4 16 22 52 40 81
19 30 27 50 19 46 -11 -4 -15 3 -15 26 0 29 14 43 22 20 4 -12 87 100 117 159
12 23 19 42 17 42 -2 0 -22 -20 -43 -44z m-38 -76 c3 -5 1 -10 -4 -10 -6 0
-11 5 -11 10 0 6 2 10 4 10 3 0 8 -4 11 -10z m-932 -1407 c-7 -2 -19 -2 -25 0
-7 3 -2 5 12 5 14 0 19 -2 13 -5z m120 -69 c-3 -7 -10 -11 -17 -7 -6 4 -19 6
-30 4 -11 -1 -16 2 -12 8 4 6 16 11 27 11 14 0 18 4 13 13 -6 9 -3 8 8 -1 9
-8 14 -20 11 -28z m-48 -125 c11 -17 -1 -21 -15 -4 -8 9 -8 15 -2 15 6 0 14
-5 17 -11z"/>
<path d="M2091 5510 c0 -29 1 -32 10 -17 7 11 7 23 0 35 -9 14 -10 11 -10 -18z"/>
<path d="M8412 5290 c0 -14 2 -19 5 -12 2 6 2 18 0 25 -3 6 -5 1 -5 -13z"/>
<path d="M1112 4693 c18 -16 44 -37 58 -48 13 -11 42 -37 64 -58 50 -49 56
-43 8 8 -36 39 -54 54 -116 103 -41 32 -54 27 -14 -5z"/>
<path d="M8629 3747 c-25 -24 -55 -64 -68 -89 -22 -47 -89 -98 -127 -98 -16 0
-16 -1 1 -20 10 -11 23 -20 30 -20 7 0 24 -11 39 -25 15 -14 31 -25 37 -25 5
0 9 -7 9 -15 0 -21 -2 -20 -84 25 -81 44 -106 49 -106 21 0 -31 -75 -134 -127
-173 -26 -20 -66 -44 -88 -55 -22 -10 -42 -21 -45 -24 -11 -14 -206 -98 -395
-169 -33 -13 -93 -41 -133 -63 l-73 -39 25 -23 c22 -20 25 -31 22 -70 -2 -34
1 -48 13 -55 13 -8 14 -9 1 -10 -22 0 -24 -71 -3 -87 15 -12 15 -13 -5 -13
-13 0 -22 -6 -22 -14 0 -8 -9 -21 -20 -29 -19 -13 -19 -14 9 -41 30 -29 58
-119 48 -153 -19 -60 -48 -136 -72 -188 -15 -33 -34 -76 -43 -95 -8 -19 -22
-42 -29 -51 -12 -15 -11 -17 12 -23 18 -5 25 -13 25 -30 0 -14 7 -31 15 -40 8
-8 15 -19 15 -25 0 -6 5 -11 10 -11 6 0 10 -16 10 -35 0 -19 4 -35 9 -35 5 0
12 -9 16 -19 3 -11 20 -24 37 -30 40 -14 38 -14 38 9 0 12 7 20 16 20 12 0 15
-6 10 -25 -4 -14 -2 -25 4 -25 5 0 10 -5 10 -11 0 -5 -4 -8 -9 -5 -11 7 -21
-17 -21 -53 0 -24 26 -61 42 -61 9 0 15 71 6 76 -13 9 -9 24 7 24 8 0 15 -5
15 -11 0 -17 27 15 51 61 31 59 63 90 144 140 110 67 108 65 79 112 -23 36
-23 38 -5 28 24 -12 26 -8 10 22 -8 16 -17 19 -40 14 -32 -6 -40 9 -9 19 37
12 78 -33 78 -85 1 -8 7 -33 15 -55 9 -22 13 -52 10 -67 -4 -22 -2 -28 11 -28
10 0 14 5 11 10 -3 6 -1 10 4 10 14 0 14 -17 1 -25 -16 -10 -12 -19 21 -56 17
-19 38 -44 46 -56 8 -12 30 -25 49 -29 20 -4 36 -13 39 -25 13 -38 45 -11 45
38 0 21 5 33 14 33 28 0 67 105 77 207 6 62 14 103 24 112 13 13 14 9 8 -36
-4 -40 -2 -55 11 -68 9 -9 16 -23 16 -31 0 -8 7 -14 15 -14 26 0 28 -27 5 -50
-12 -12 -19 -24 -16 -28 4 -3 13 4 22 16 8 12 22 22 29 22 8 0 22 12 32 28 42
65 57 65 58 2 0 -46 6 -48 46 -19 23 16 28 26 24 42 -6 20 -5 20 14 -3 l20
-25 18 24 c10 14 25 38 34 53 14 28 16 28 32 10 15 -16 15 -20 1 -40 -8 -12
-19 -20 -24 -17 -14 9 -42 -66 -35 -95 4 -20 3 -22 -5 -10 -8 11 -9 2 -4 -35
4 -27 8 -53 11 -57 8 -14 53 16 77 51 52 74 61 109 60 226 -1 100 -4 117 -33
190 -18 44 -39 91 -48 103 -8 13 -12 27 -8 30 3 4 10 0 15 -8 22 -36 155 171
180 279 24 101 -1 238 -64 356 -67 127 -116 187 -222 275 -41 35 -71 67 -67
70 21 19 147 54 304 85 l26 5 -42 44 c-24 24 -51 55 -60 70 -10 14 -23 26 -30
26 -8 0 -17 10 -21 22 -9 31 -45 78 -59 78 -6 0 -32 -19 -56 -43z m65 -1246
c19 -36 37 -84 41 -106 10 -54 -8 -35 -29 31 -19 59 -74 155 -114 199 -61 67
-60 75 1 11 37 -38 82 -99 101 -135z m60 -173 c3 -13 1 -27 -4 -32 -7 -7 -10
-4 -10 6 0 9 -3 23 -6 32 -3 9 -2 16 4 16 5 0 12 -10 16 -22z m2 -110 c-4 -29
-12 -57 -18 -63 -7 -7 -8 1 -2 25 5 19 8 47 8 63 -1 15 3 27 9 27 6 0 7 -20 3
-52z m-346 38 c0 -3 -4 -8 -10 -11 -5 -3 -10 -1 -10 4 0 6 5 11 10 11 6 0 10
-2 10 -4z m84 -5 c4 -5 -3 -7 -14 -4 -23 6 -26 13 -6 13 8 0 17 -4 20 -9z"/>
<path d="M8855 3523 c-67 -14 -69 -15 -56 -22 17 -11 151 -11 151 0 0 21 -47
33 -95 22z"/>
<path d="M1590 2949 c0 -5 5 -7 10 -4 6 3 10 8 10 11 0 2 -4 4 -10 4 -5 0 -10
-5 -10 -11z"/>
<path d="M7301 2649 c-24 -5 -54 -15 -67 -24 -13 -8 -28 -15 -34 -15 -6 0 -32
-14 -58 -32 -65 -43 -128 -139 -134 -206 -4 -39 -2 -49 9 -45 8 3 13 -2 13
-16 0 -12 -6 -21 -12 -20 -27 3 -37 -2 -32 -15 4 -11 12 -13 30 -6 13 5 24 6
24 1 0 -5 23 -14 51 -21 48 -12 57 -23 21 -25 -56 -4 -57 -5 -57 -34 0 -19 4
-27 13 -24 6 3 12 11 12 18 0 8 5 17 10 20 7 4 9 -3 6 -20 -3 -14 -2 -33 1
-41 6 -17 33 -19 33 -2 0 6 2 9 4 7 3 -3 1 -21 -3 -42 -11 -47 1 -48 18 -2 7
19 17 35 22 35 13 0 11 -14 -3 -28 -9 -9 -9 -12 -1 -12 7 0 15 5 18 10 5 8 11
7 21 -1 12 -10 15 -10 12 2 -2 8 -7 17 -13 21 -18 13 6 22 26 9 19 -11 20 -10
14 10 -5 15 -3 20 6 17 8 -3 15 -14 17 -26 2 -12 7 -20 12 -17 5 3 7 12 4 20
-7 16 32 35 69 35 20 -1 20 -2 -5 -16 -16 -8 -28 -17 -28 -20 0 -2 9 0 19 6
11 5 29 10 40 10 11 0 25 11 33 28 8 15 19 36 26 47 6 11 24 47 40 80 17 33
38 75 47 94 14 26 16 48 12 101 -7 81 -20 105 -69 131 -39 20 -93 23 -167 8z
m-217 -334 c-30 -30 -34 -31 -34 -6 0 20 12 29 42 30 14 1 12 -4 -8 -24z"/>
<path d="M5525 2593 c-22 -3 -48 -11 -57 -20 -16 -14 -14 -21 29 -102 25 -47
50 -92 56 -99 26 -33 149 -275 162 -320 l7 -24 22 21 c29 27 79 27 177 1 90
-24 100 -24 93 -5 -4 8 -1 15 5 15 7 0 16 -10 21 -22 7 -19 9 -20 9 -5 1 26
-43 117 -69 145 -12 13 -20 26 -17 29 9 8 62 -13 103 -41 21 -14 39 -24 40
-23 1 1 -2 39 -6 83 -23 223 -186 351 -470 367 -36 2 -83 2 -105 0z"/>
<path d="M7008 2223 c7 -3 16 -2 19 1 4 3 -2 6 -13 5 -11 0 -14 -3 -6 -6z"/>
<path d="M8710 2119 c0 -5 5 -7 10 -4 6 3 10 8 10 11 0 2 -4 4 -10 4 -5 0 -10
-5 -10 -11z"/>
<path d="M8380 2015 c0 -8 2 -15 4 -15 2 0 6 7 10 15 3 8 1 15 -4 15 -6 0 -10
-7 -10 -15z"/>
<path d="M5300 1887 c0 -13 -5 -28 -12 -35 -9 -9 -9 -12 3 -12 30 0 40 15 30
43 -13 33 -21 35 -21 4z"/>
</g>
</svg>
