<?xml version="1.0" standalone="no"?>
<!DOCTYPE svg PUBLIC "-//W3C//DTD SVG 20010904//EN"
 "http://www.w3.org/TR/2001/REC-SVG-20010904/DTD/svg10.dtd">
<svg version="1.0" xmlns="http://www.w3.org/2000/svg"
 width="1024.000000pt" height="1024.000000pt" viewBox="0 0 1024.000000 1024.000000"
 preserveAspectRatio="xMidYMid meet">

<g transform="translate(0.000000,1024.000000) scale(0.100000,-0.100000)"
fill="#000000" stroke="none">
<path d="M5131 9514 c-13 -27 -43 -78 -66 -114 -23 -36 -65 -103 -93 -150 -28
-47 -70 -115 -94 -151 -24 -37 -71 -111 -106 -165 -34 -55 -77 -121 -95 -148
-17 -27 -37 -57 -42 -65 -6 -9 -24 -36 -40 -61 -16 -25 -50 -79 -75 -121 -119
-201 -119 -201 -235 -233 -78 -23 -276 -96 -295 -111 -29 -21 -91 -45 -117
-45 -25 0 -24 -2 18 -28 24 -16 66 -50 93 -75 27 -26 73 -60 102 -77 30 -17
54 -33 54 -36 0 -10 -102 51 -143 87 -23 20 -64 49 -92 64 -138 80 -245 157
-284 206 -23 29 -55 62 -71 74 -16 12 -55 50 -86 86 -32 35 -60 66 -64 69 -6
4 -108 140 -154 205 -8 11 -16 18 -19 15 -7 -7 -14 -139 -7 -135 3 2 4 -34 2
-78 -1 -45 -5 -318 -8 -607 -6 -462 -8 -527 -22 -537 -27 -22 -32 -15 -31 50
0 40 3 55 8 42 4 -11 11 100 14 245 4 146 9 330 11 410 l5 145 -9 -120 c-18
-260 -32 -487 -39 -631 l-6 -151 -68 -99 c-37 -55 -101 -148 -142 -209 -41
-60 -89 -130 -107 -154 -36 -48 -45 -63 -153 -256 -70 -125 -165 -314 -165
-329 0 -4 -11 -31 -24 -59 -43 -94 -84 -200 -117 -302 -17 -55 -40 -126 -50
-157 -11 -32 -19 -63 -19 -70 0 -7 -8 -42 -19 -78 -52 -174 -70 -263 -113
-550 -21 -139 -23 -190 -23 -500 0 -361 1 -367 56 -695 19 -112 50 -242 86
-360 29 -98 105 -320 119 -352 8 -17 14 -34 14 -38 0 -18 85 -193 127 -260 14
-22 62 -103 107 -180 196 -334 446 -606 764 -833 26 -19 65 -49 87 -68 22 -19
78 -55 125 -79 47 -25 108 -59 135 -75 28 -16 57 -32 65 -36 8 -3 33 -14 55
-24 22 -10 51 -21 65 -25 14 -4 44 -16 68 -26 171 -77 409 -143 649 -180 120
-18 167 -20 358 -16 350 8 499 30 779 117 107 33 419 158 476 192 22 13 81 47
132 77 51 30 113 70 138 90 25 20 70 54 100 76 155 110 371 310 447 413 15 20
37 47 50 60 12 13 41 49 65 80 24 31 45 59 48 62 9 9 50 69 50 74 0 2 36 62
79 134 91 149 190 335 216 407 10 28 22 55 25 60 4 6 24 60 43 120 20 61 48
144 62 185 25 70 48 169 95 400 10 52 21 115 24 140 3 25 12 92 20 150 35 250
29 640 -14 932 -42 292 -127 663 -180 793 -5 11 -23 65 -40 120 -18 55 -39
114 -49 130 -9 17 -25 53 -35 80 -27 72 -52 127 -109 240 -28 55 -65 129 -83
165 -17 36 -44 84 -59 105 -14 22 -33 53 -41 70 -8 16 -27 46 -44 65 -16 19
-30 38 -30 43 0 4 -22 38 -49 75 -62 85 -110 171 -125 224 l-13 41 -21 -36
c-26 -40 -95 -77 -157 -83 l-40 -4 30 14 c17 9 38 15 48 16 10 0 42 34 76 80
45 62 67 104 91 178 32 97 99 263 110 272 3 3 18 31 34 63 32 64 126 207 156
237 30 30 25 43 -12 35 -99 -19 -219 -49 -263 -66 -74 -27 -168 -55 -275 -79
-263 -61 -310 -72 -370 -90 -115 -34 -110 -33 -110 -13 0 24 41 42 209 90 8 2
-40 37 -105 78 -65 41 -137 87 -159 102 -65 45 -175 106 -260 142 -44 19 -108
47 -142 62 -35 16 -104 42 -155 58 -51 16 -122 40 -158 53 l-65 24 28 -109
c15 -60 26 -114 25 -121 -1 -6 3 -29 10 -51 25 -90 51 -225 57 -300 4 -44 10
-87 15 -95 12 -24 21 -142 11 -135 -11 6 -23 63 -46 230 -21 143 -24 158 -75
350 -22 83 -50 195 -61 250 -34 169 -60 288 -74 340 -8 28 -26 93 -40 145 -15
52 -33 118 -40 145 -8 28 -21 73 -30 100 -9 28 -23 83 -30 124 -8 41 -19 88
-25 105 -5 17 -16 62 -22 100 l-13 69 -24 -49z m-706 -1362 c39 -44 165 -110
261 -137 71 -21 78 -25 67 -36 -6 -6 -60 13 -135 46 -70 30 -131 55 -136 55
-5 0 -21 9 -34 20 -14 10 -28 17 -32 13 -3 -3 -14 1 -25 11 -22 20 -30 13 -62
-64 -29 -71 -32 -75 -86 -101 -26 -12 -49 -33 -56 -48 -14 -31 -9 -24 -93
-128 -36 -46 -69 -83 -73 -83 -4 0 -18 -10 -31 -22 -23 -22 -145 -88 -161 -88
-5 0 -8 6 -7 12 4 19 56 48 74 41 21 -8 64 16 64 36 1 9 23 34 51 56 45 37 69
68 153 197 19 28 43 52 61 58 52 20 59 26 67 61 11 43 40 142 45 151 8 14 53
-12 88 -50z m-67 -122 c-7 -10 -14 -18 -15 -16 -6 6 9 36 18 36 5 0 4 -9 -3
-20z m513 -69 c22 -11 54 -23 72 -26 18 -4 37 -11 42 -15 6 -4 36 -13 67 -19
31 -7 62 -19 68 -26 7 -8 16 -12 21 -9 5 3 28 -6 52 -20 24 -15 56 -26 71 -26
15 0 44 -9 66 -20 22 -11 46 -20 54 -20 8 0 17 -4 21 -9 3 -6 -4 -8 -17 -4
-13 3 -39 7 -58 10 -19 2 -55 14 -80 26 -25 11 -47 21 -50 22 -3 1 -23 9 -45
20 -22 10 -44 19 -50 21 -5 1 -43 14 -84 28 -41 14 -87 26 -102 26 -15 0 -29
6 -32 14 -3 7 -24 16 -47 19 -23 3 -47 10 -53 16 -19 19 40 13 84 -8z m1168
-243 c47 -160 63 -220 59 -224 -5 -4 -84 242 -93 291 -10 50 13 5 34 -67z
m251 70 c0 -5 -3 -8 -7 -9 -74 -5 -83 -5 -83 6 0 8 16 12 45 11 25 0 45 -4 45
-8z m-150 -30 c0 -7 -19 -21 -42 -31 -33 -13 -43 -14 -50 -5 -5 9 4 18 30 30
45 20 62 22 62 6z m-2335 -186 c-3 -3 -11 0 -18 7 -9 10 -8 11 6 5 10 -3 15
-9 12 -12z m-403 -139 c-10 -4 -10 -8 -1 -19 7 -9 8 -14 1 -14 -20 0 -75 -55
-151 -150 -42 -54 -81 -106 -87 -116 -10 -17 -11 -16 -7 7 5 30 -14 49 -28 28
-7 -11 -9 -11 -9 3 0 23 18 32 36 17 17 -14 16 -14 39 30 15 30 15 35 2 49
-14 13 -18 12 -42 -12 -37 -37 -59 -35 -51 6 7 36 34 70 48 62 5 -3 18 5 30
18 19 21 20 21 16 3 -3 -11 -9 -28 -13 -37 -9 -23 44 -47 56 -26 34 58 137
156 164 156 6 0 4 -2 -3 -5z m2760 -100 c7 -9 7 -13 -1 -13 -13 0 -36 44 -44
85 -5 23 -2 19 14 -15 11 -24 25 -50 31 -57z m520 -147 c24 -8 52 -16 63 -19
14 -3 10 -5 -10 -6 -16 0 -48 8 -70 18 -48 23 -41 26 17 7z m-3582 -157 c0 -5
-7 -9 -15 -9 -15 0 -20 12 -9 23 8 8 24 -1 24 -14z m-60 -299 c30 -30 27 -105
-7 -177 -37 -77 -162 -208 -228 -239 -83 -39 -136 -29 -161 31 -12 29 -12 39
1 74 30 85 126 207 223 280 69 53 138 65 172 31z m2625 -1055 c80 -46 153
-132 210 -250 91 -185 115 -286 115 -480 0 -182 -15 -235 -93 -330 -22 -27
-31 -30 -77 -28 -90 2 -204 96 -275 228 -6 11 -28 49 -47 85 -43 77 -73 187
-88 322 -29 278 13 432 132 474 40 14 70 9 123 -21z m-1087 -10 c18 -19 32
-37 32 -41 0 -3 8 -18 19 -32 26 -38 51 -157 51 -244 -1 -145 -47 -345 -106
-455 -86 -159 -150 -233 -248 -284 -76 -39 -98 -36 -159 26 -66 67 -81 128
-80 330 0 141 4 171 27 252 56 195 153 361 255 434 47 33 88 47 137 48 34 1
46 -4 72 -34z m820 -469 c3 -12 -1 -17 -10 -14 -7 3 -15 13 -16 22 -3 12 1 17
10 14 7 -3 15 -13 16 -22z m1883 -527 c28 -14 59 -91 59 -144 0 -102 -39 -199
-120 -295 -77 -93 -132 -136 -194 -155 -43 -13 -52 -13 -82 1 -37 17 -42 28
-54 99 -8 50 4 160 19 180 5 5 11 21 14 35 17 73 155 241 222 271 45 21 106
24 136 8z m-4240 -1088 c104 -27 257 -104 325 -165 85 -75 152 -146 182 -191
15 -22 33 -46 40 -53 7 -8 33 -55 57 -105 61 -124 81 -254 54 -352 -15 -54
-82 -118 -142 -134 -59 -17 -188 -5 -222 19 -5 4 -28 13 -50 20 -146 46 -292
167 -438 361 -223 299 -183 614 79 618 22 1 74 -8 115 -18z m3827 -813 c48
-40 50 -135 4 -221 -36 -67 -158 -179 -238 -218 -108 -53 -212 -49 -244 10
-35 67 30 223 133 317 113 104 287 160 345 112z m-1396 -234 c60 -24 94 -59
107 -109 15 -61 14 -88 -9 -165 -19 -63 -27 -74 -105 -149 -93 -87 -130 -108
-245 -136 -64 -16 -82 -17 -134 -6 -67 14 -96 33 -139 92 -26 36 -31 50 -31
108 -1 86 36 163 119 246 90 91 191 133 322 134 45 1 89 -5 115 -15z m-512
-927 c14 -7 33 -29 43 -49 15 -31 16 -43 7 -77 -9 -34 -20 -46 -63 -71 -46
-28 -59 -31 -119 -28 -55 3 -72 8 -93 28 -81 76 -69 173 25 199 51 14 171 13
200 -2z"/>
<path d="M3764 8201 c7 -11 46 -35 46 -28 0 3 -12 12 -26 22 -15 9 -23 12 -20
6z"/>
<path d="M3193 7460 c0 -25 2 -35 4 -22 2 12 2 32 0 45 -2 12 -4 2 -4 -23z"/>
</g>
</svg>
